<svg xmlns="http://www.w3.org/2000/svg" viewBox="0 0 215.3 76.4"><defs><style>.cls-1{fill:#f0f0f1;}.cls-2{fill:#f5b530;}.cls-3{fill:#f47e6e;}.cls-4{fill:#77d0e8;}.cls-5{fill:#fff;}.cls-6{fill:#27cc9a;}</style></defs><g id="Capa_2" data-name="Capa 2"><g id="Layer_1" data-name="Layer 1"><circle class="cls-1" cx="200.18" cy="14.71" r="8.75"/><path class="cls-2" d="M187.68,28.37h-2.09V14.59a14.59,14.59,0,0,1,29.18,0h-2.09a12.5,12.5,0,0,0-25,0Z"/><circle class="cls-1" cx="75.71" cy="14.71" r="8.75"/><path class="cls-3" d="M63.21,28.37H61.12V14.59a14.59,14.59,0,0,1,29.18,0H88.21a12.5,12.5,0,0,0-25,0Z"/><path class="cls-3" d="M74.88,14.71H72.79a2.39,2.39,0,1,0-4.78,0H65.92a4.48,4.48,0,1,1,9,0Z"/><path class="cls-2" d="M201.75,21.41h-4.49v-6.7a2.39,2.39,0,1,0-4.78,0h-2.09a4.48,4.48,0,1,1,9,0v4.61h2.4Z"/><path class="cls-3" d="M77.91,28.89a4.49,4.49,0,0,1-4.48-4.48h2.09a2.39,2.39,0,1,0,4.77,0h2.09A4.48,4.48,0,0,1,77.91,28.89Z"/><path class="cls-2" d="M201.75,28.89V26.8a2.39,2.39,0,0,0,2.39-2.39h2.08A4.48,4.48,0,0,1,201.75,28.89Z"/><circle class="cls-1" cx="14.59" cy="14.71" r="8.75"/><path class="cls-4" d="M2.09,28.37H0V14.59a14.59,14.59,0,0,1,29.18,0H27.09a12.5,12.5,0,0,0-25,0Z"/><path class="cls-4" d="M16.78,28.89a4.48,4.48,0,0,1-4.47-4.48V12.84H5.84V10.75h8.55V24.41a2.39,2.39,0,0,0,4.78,0h2.09A4.49,4.49,0,0,1,16.78,28.89Z"/><path class="cls-5" d="M43.15,51.75a7.92,7.92,0,0,0-2.84-1.55,12.18,12.18,0,0,0-3.55-.5,10.62,10.62,0,0,0-3.87.67,10.16,10.16,0,0,0-3,1.79,10.05,10.05,0,0,0-2.09,2.51c-.17.31-.32.62-.46.93a8.42,8.42,0,0,0-.37-1.2,7,7,0,0,0-1.88-2.65,7.92,7.92,0,0,0-2.84-1.55,12.18,12.18,0,0,0-3.55-.5,11,11,0,0,0-4,.67,9.38,9.38,0,0,0-3,1.82,9.62,9.62,0,0,0-2,2.52A9.06,9.06,0,0,0,9,56.15v-6H3.59V70.92H9V58.6A5.49,5.49,0,0,1,10,57a8.41,8.41,0,0,1,2.84-2.11,9,9,0,0,1,3.93-.83,5.83,5.83,0,0,1,4.15,1.23,5.16,5.16,0,0,1,1.28,3.86V70.92h5.43V58.22c0-.19,0-.36,0-.55a6.67,6.67,0,0,1,.48-.64,8.41,8.41,0,0,1,2.84-2.11,9,9,0,0,1,3.92-.83A5.92,5.92,0,0,1,39,55.32a5.09,5.09,0,0,1,1.3,3.86v9.65a2.08,2.08,0,0,0,2.09,2.09h3.34V58.22a9.65,9.65,0,0,0-.69-3.82A7.1,7.1,0,0,0,43.15,51.75Z"/><path class="cls-5" d="M100.46,51.75a7.75,7.75,0,0,0-2.84-1.55,12.13,12.13,0,0,0-3.55-.5,11,11,0,0,0-4,.67,9.23,9.23,0,0,0-3,1.82,9.42,9.42,0,0,0-2,2.52,8.28,8.28,0,0,0-.63,1.44v-6H79V70.92h5.43V58.6a6,6,0,0,1,1-1.57,8.51,8.51,0,0,1,2.84-2.11,9,9,0,0,1,3.93-.83,5.86,5.86,0,0,1,4.16,1.23,5.16,5.16,0,0,1,1.27,3.86v9.65a2.09,2.09,0,0,0,2.09,2.09H103V58.22a9.85,9.85,0,0,0-.67-3.82A6.84,6.84,0,0,0,100.46,51.75Z"/><path class="cls-5" d="M117.26,44.48h-5.43v5.68h-5.35v4.22h5.35V68.83a2.08,2.08,0,0,0,2.09,2.09h3.34V54.38h5.35V50.16h-5.35Z"/><path class="cls-5" d="M174.07,50.38h-5.24l-15,16.27a1.14,1.14,0,0,0-.3.76v1.5A2.09,2.09,0,0,0,155.65,71h13.18v5.4h5.24V71h4.63V67h-4.63ZM168.83,67h-8.94l8.94-10Z"/><rect class="cls-5" x="182.73" y="66.98" width="5.31" height="4.01"/><path class="cls-5" d="M213.69,54.87a10.07,10.07,0,0,0-4.45-3.57,17,17,0,0,0-6.63-1.21,17.22,17.22,0,0,0-6.67,1.21,9.5,9.5,0,0,0-6.1,9.31,9.79,9.79,0,0,0,1.61,5.7,10,10,0,0,0,4.49,3.52A17,17,0,0,0,202.61,71a16.8,16.8,0,0,0,6.63-1.21,10.11,10.11,0,0,0,4.45-3.52,9.79,9.79,0,0,0,1.61-5.7A9.94,9.94,0,0,0,213.69,54.87ZM209,64.09a6.18,6.18,0,0,1-2.65,2.18,9,9,0,0,1-3.73.74,9.25,9.25,0,0,1-3.79-.74,6.21,6.21,0,0,1-2.68-2.18,5.94,5.94,0,0,1-1-3.48,6.08,6.08,0,0,1,1-3.55,6.46,6.46,0,0,1,2.7-2.21,9,9,0,0,1,3.75-.77,8.85,8.85,0,0,1,3.75.77A6.08,6.08,0,0,1,210,60.61,6,6,0,0,1,209,64.09Z"/><path class="cls-5" d="M69.8,51A15.85,15.85,0,0,0,63,49.7,17.59,17.59,0,0,0,56,51a10.59,10.59,0,0,0-4.65,3.74,10.11,10.11,0,0,0-1.67,5.87,9.86,9.86,0,0,0,1.71,5.85,10.71,10.71,0,0,0,4.76,3.7,18.05,18.05,0,0,0,7,1.27,16.57,16.57,0,0,0,6-1,9.67,9.67,0,0,0,3.91-2.63,7.51,7.51,0,0,0,1.63-3.09H69.24a4.74,4.74,0,0,1-1.88,1.61,9.35,9.35,0,0,1-4.33.9,9.89,9.89,0,0,1-4-.76,6.62,6.62,0,0,1-2.67-2,6,6,0,0,1-1.19-2.89h19.8a13.18,13.18,0,0,0-1.11-6.66A8.46,8.46,0,0,0,69.8,51Zm-14.37,7.4a5.89,5.89,0,0,1,2.42-3.24,8.36,8.36,0,0,1,4.89-1.31,8.39,8.39,0,0,1,4.83,1.23,4.42,4.42,0,0,1,2,3.32Z"/><path class="cls-5" d="M144.91,51a15.83,15.83,0,0,0-6.8-1.29,17.53,17.53,0,0,0-7,1.29,10.61,10.61,0,0,0-4.66,3.74,10.19,10.19,0,0,0-1.67,5.87,9.86,9.86,0,0,0,1.71,5.85,10.71,10.71,0,0,0,4.76,3.7,18.12,18.12,0,0,0,7,1.27,16.67,16.67,0,0,0,6-1,9.7,9.7,0,0,0,3.9-2.63,7.51,7.51,0,0,0,1.63-3.09h-5.47a4.74,4.74,0,0,1-1.88,1.61,9.34,9.34,0,0,1-4.32.9,9.86,9.86,0,0,1-4-.76,6.72,6.72,0,0,1-2.68-2,6.09,6.09,0,0,1-1.19-2.89h19.8A13.29,13.29,0,0,0,149,54.9,8.52,8.52,0,0,0,144.91,51Zm-14.37,7.4A5.91,5.91,0,0,1,133,55.15a9.92,9.92,0,0,1,9.71-.08,4.42,4.42,0,0,1,2,3.32Z"/><circle class="cls-1" cx="137.25" cy="14.71" r="8.75"/><path class="cls-6" d="M124.75,28.37h-2.09V14.59a14.59,14.59,0,0,1,29.18,0h-2.09a12.5,12.5,0,0,0-25,0Z"/><path class="cls-6" d="M137.59,28.89a4.49,4.49,0,0,1-4.48-4.48l0-.23,2.59-11.34H129V10.75h9.35L135.2,24.52a2.39,2.39,0,0,0,4.78-.11h2.08A4.48,4.48,0,0,1,137.59,28.89Z"/></g></g></svg>