<svg xmlns="http://www.w3.org/2000/svg" viewBox="0 0 210.93 31.8"><defs><style>.cls-1{fill:#333132;}</style></defs><g id="Capa_2" data-name="Capa 2"><g id="Layer_1" data-name="Layer 1"><path class="cls-1" d="M39.42,7.24A8,8,0,0,0,36.59,5.7a12.16,12.16,0,0,0-3.54-.5,10.69,10.69,0,0,0-3.85.67,10,10,0,0,0-3,1.79,9.79,9.79,0,0,0-2.08,2.5,7.89,7.89,0,0,0-.46.92,8.28,8.28,0,0,0-.37-1.19,7,7,0,0,0-1.88-2.65A7.84,7.84,0,0,0,18.56,5.7,12,12,0,0,0,15,5.2a11.14,11.14,0,0,0-4,.67,9.6,9.6,0,0,0-3,1.81A9.34,9.34,0,0,0,6,10.2a8.19,8.19,0,0,0-.63,1.43v-6H0V26.35H5.41V14.07a5.45,5.45,0,0,1,1-1.56,8.22,8.22,0,0,1,2.83-2.1,8.9,8.9,0,0,1,3.91-.84,5.79,5.79,0,0,1,4.14,1.23,5.13,5.13,0,0,1,1.27,3.85v11.7h5.41V13.69c0-.19,0-.36,0-.54a5.62,5.62,0,0,1,.48-.64,8.22,8.22,0,0,1,2.83-2.1,8.93,8.93,0,0,1,3.91-.84,5.88,5.88,0,0,1,4.16,1.23,5.1,5.1,0,0,1,1.3,3.85v9.62a2.08,2.08,0,0,0,2.08,2.08H42V13.69a9.52,9.52,0,0,0-.69-3.8A7.27,7.27,0,0,0,39.42,7.24Z"/><path class="cls-1" d="M96.52,7.24A8,8,0,0,0,93.69,5.7a12.07,12.07,0,0,0-3.54-.5,11.09,11.09,0,0,0-4,.67,9.49,9.49,0,0,0-3,1.81,9.38,9.38,0,0,0-2,2.52,9,9,0,0,0-.62,1.43v-6H75.13V26.35h5.41V14.07a5.64,5.64,0,0,1,.95-1.56,8.41,8.41,0,0,1,2.83-2.1,8.94,8.94,0,0,1,3.92-.84,5.82,5.82,0,0,1,4.14,1.23,5.17,5.17,0,0,1,1.27,3.85v9.62a2.08,2.08,0,0,0,2.08,2.08h3.33V13.69a9.71,9.71,0,0,0-.67-3.8A7,7,0,0,0,96.52,7.24Z"/><path class="cls-1" d="M113.25,0h-5.41V5.66h-5.33v4.2h5.33V24.27a2.08,2.08,0,0,0,2.08,2.08h3.33V9.86h5.33V5.66h-5.33Z"/><path class="cls-1" d="M169.85,5.88h-5.22L149.72,22.09a1.14,1.14,0,0,0-.3.76v1.49a2.09,2.09,0,0,0,2.08,2.09h13.13V31.8h5.22V26.43h4.61v-4h-4.61Zm-5.22,16.53h-8.9l8.9-10Z"/><rect class="cls-1" x="178.48" y="22.42" width="5.29" height="4"/><path class="cls-1" d="M209.32,10.35a10,10,0,0,0-4.43-3.55,16.83,16.83,0,0,0-6.6-1.2,17.15,17.15,0,0,0-6.65,1.2,9.92,9.92,0,0,0-4.47,3.55,9.9,9.9,0,0,0-1.61,5.72,9.71,9.71,0,0,0,1.61,5.68,10,10,0,0,0,4.47,3.51,17.15,17.15,0,0,0,6.65,1.21,16.82,16.82,0,0,0,6.6-1.21,10,10,0,0,0,4.43-3.51,9.71,9.71,0,0,0,1.61-5.68A9.9,9.9,0,0,0,209.32,10.35Zm-4.67,9.19A6.22,6.22,0,0,1,202,21.71a8.94,8.94,0,0,1-3.71.74,9.21,9.21,0,0,1-3.78-.74,6.22,6.22,0,0,1-2.67-2.17,6,6,0,0,1-1-3.47,6,6,0,0,1,1-3.53,6.5,6.5,0,0,1,2.69-2.21,9,9,0,0,1,3.74-.76,8.76,8.76,0,0,1,3.73.76,6.28,6.28,0,0,1,2.63,2.23,6.21,6.21,0,0,1,1,3.51A6,6,0,0,1,204.65,19.54Z"/><path class="cls-1" d="M66,6.49A15.74,15.74,0,0,0,59.19,5.2a17.46,17.46,0,0,0-7,1.29,10.52,10.52,0,0,0-4.64,3.73,10.09,10.09,0,0,0-1.66,5.85,9.81,9.81,0,0,0,1.71,5.82,10.64,10.64,0,0,0,4.74,3.69,18.16,18.16,0,0,0,7,1.27,16.55,16.55,0,0,0,6-1,9.72,9.72,0,0,0,3.89-2.62,7.57,7.57,0,0,0,1.62-3.08H65.41a4.8,4.8,0,0,1-1.88,1.6,9.22,9.22,0,0,1-4.3.89,9.81,9.81,0,0,1-4-.75,6.54,6.54,0,0,1-2.66-2A6,6,0,0,1,51.36,17H71.09A13.23,13.23,0,0,0,70,10.38,8.48,8.48,0,0,0,66,6.49ZM51.65,13.86a5.87,5.87,0,0,1,2.42-3.23,8.32,8.32,0,0,1,4.87-1.31,8.28,8.28,0,0,1,4.8,1.23,4.41,4.41,0,0,1,2,3.31Z"/><path class="cls-1" d="M140.81,6.49A15.78,15.78,0,0,0,134,5.2a17.41,17.41,0,0,0-7,1.29,10.52,10.52,0,0,0-4.64,3.73,10.1,10.1,0,0,0-1.67,5.85,9.81,9.81,0,0,0,1.71,5.82,10.75,10.75,0,0,0,4.74,3.69,18.17,18.17,0,0,0,7,1.27,16.49,16.49,0,0,0,6-1,9.65,9.65,0,0,0,3.89-2.62,7.45,7.45,0,0,0,1.62-3.08h-5.44a4.87,4.87,0,0,1-1.88,1.6,9.27,9.27,0,0,1-4.31.89,9.8,9.8,0,0,1-4-.75,6.51,6.51,0,0,1-2.67-2A5.9,5.9,0,0,1,126.2,17h19.72a13.12,13.12,0,0,0-1.1-6.64A8.42,8.42,0,0,0,140.81,6.49Zm-14.32,7.37a5.85,5.85,0,0,1,2.41-3.23,9.86,9.86,0,0,1,9.68-.08,4.41,4.41,0,0,1,2,3.31Z"/></g></g></svg>