<svg xmlns="http://www.w3.org/2000/svg" viewBox="0 0 246.82 49.41"><defs><style>.cls-1{fill:#333132;}</style></defs><g id="Capa_2" data-name="Capa 2"><g id="Layer_1" data-name="Layer 1"><path class="cls-1" d="M44.37,35.3A49.89,49.89,0,0,1,18.42,47.07c-4.22.57-9.39.94-13-1.8S1.34,37.43,2.62,33.36C4,29,7.09,25.05,10.47,22a33.75,33.75,0,0,1,17.82-8.46,21.46,21.46,0,0,1,7.54.08,11.43,11.43,0,0,1,5.79,3,8.35,8.35,0,0,1,2.41,6,13.91,13.91,0,0,1-5.1,10.9,8.79,8.79,0,0,1-5.27,1.92,2.82,2.82,0,0,1-2.55-1.13,3.56,3.56,0,0,1-.26-2.79,12.28,12.28,0,0,1,1.71-3.29A1,1,0,0,0,31,27a.27.27,0,0,0-.07.08,6.53,6.53,0,0,0-.4-1.35A6.83,6.83,0,0,0,26.69,22c-3.78-1.52-7.92.17-10.68,2.87s-5.32,6.65-4.11,10.5A5.3,5.3,0,0,0,15.61,39a8.14,8.14,0,0,0,5.85-1.33,41.94,41.94,0,0,0,5.71-4.23q.81-.69,1.59-1.41a5.13,5.13,0,0,0,.39,2.7c1.11,2.57,4.06,2.89,6.49,2.39,4.55-.93,7.88-4.87,9.41-9.07a15,15,0,0,0,.75-7.71,10.24,10.24,0,0,0-3.76-6c-4.36-3.47-10.25-3.5-15.49-2.53A35.42,35.42,0,0,0,2.87,28.12c-2.68,4.49-4,10-1.67,14.94a10.34,10.34,0,0,0,5,5,17.39,17.39,0,0,0,7.4,1.37,47.17,47.17,0,0,0,15.28-2.87,51.71,51.71,0,0,0,13.84-7.4c1-.78,2-1.59,3-2.44a1,1,0,0,0,0-1.4A1,1,0,0,0,44.37,35.3Zm-21.62-.84C20.69,36,16.59,38.92,14.41,36c-2-2.69,0-6.23,1.77-8.43,2-2.48,4.82-4.45,8.15-4.17a5.2,5.2,0,0,1,4,2.3A4.48,4.48,0,0,1,29,29.17,53.94,53.94,0,0,1,22.75,34.46Z"/><path class="cls-1" d="M179.56,31.74C177.2,33.85,174.2,36,170.88,36a3.56,3.56,0,0,1-3.28-1.79,5.71,5.71,0,0,1,.09-4c.1-.31.22-.61.33-.92,3.93.51,8.23.06,10.74-3.39a5.65,5.65,0,0,0,.84-5.41,3.93,3.93,0,0,0-5.06-1.82,12.36,12.36,0,0,0-4.81,4,24.11,24.11,0,0,0-2.94,4.6,1,1,0,0,0-.11.17c-1.52,3.32-3.43,6.57-6.78,8.3a7.11,7.11,0,0,1-4.55.9,4.4,4.4,0,0,1-1-.32,6.32,6.32,0,0,1-.56-.33l-.15-.1-.11-.11-.06-.05,0-.07-.13-.24c0-.09-.07-.18-.09-.27s-.07-.33-.07-.33a9.07,9.07,0,0,1,.56-3.87,32.53,32.53,0,0,1,1.61-4.14c1.63-3.48,3.46-6.88,5.23-10.29h5.13a1,1,0,0,0,0-2h-4.11q3.31-6.48,6.64-13c.57-1.13-1.13-2.13-1.71-1l-6.8,13.29-.35.68h-5a1,1,0,0,0,0,2h4l-2,4c-.84,1.65-1.72,3.28-2.51,4.95a.86.86,0,0,0-.2.26,26.08,26.08,0,0,1-3.65,5.23A20.35,20.35,0,0,1,145.06,35c-1.41.8-3.66,1.33-4.84-.17s-.38-3.64.35-5.09c.94-1.9,2.15-3.78,2.16-6a4.68,4.68,0,0,0-2.7-4.54c-2.14-.84-4.4.44-6.08,1.68a59.63,59.63,0,0,0-5.14,4.24c-1.37,1.27-2.69,2.61-3.94,4l2.52-5.54c.55-1.22,1.09-2.44,1.64-3.67a1,1,0,0,0-.36-1.35,1,1,0,0,0-1.35.36l-1.33,3a1.08,1.08,0,0,0-.18.23,38.83,38.83,0,0,1-8.34,10.11,16.11,16.11,0,0,1-5.13,3.16c-1.64.56-3.67.86-5.21-.13s-1.48-2.93-1.1-4.46a12,12,0,0,1,.52-1.64,13.73,13.73,0,0,0,7.11-.57A7.83,7.83,0,0,0,118.23,24c.74-2.28-.1-5.15-2.74-5.59s-4.7,1.45-6.34,3.22a23,23,0,0,0-3.81,5.55s0,0,0,0a14.06,14.06,0,0,1-4.78,5.12,19,19,0,0,1-6.69,2.86,3.65,3.65,0,0,1-3.33-.56c-.93-.93-.26-1.93.41-2.8,1.64-2.14,3.57-4.08,4.91-6.43,1-1.8,2.18-5,0-6.47a5.43,5.43,0,0,0-4.13-.35,18.89,18.89,0,0,0-4.83,2A47.33,47.33,0,0,0,81.55,24q-2.4,1.77-4.67,3.74A18.87,18.87,0,0,0,78.2,24.8a5.16,5.16,0,0,0,.25-2.93,3.48,3.48,0,0,0-2.63-2.2,7.08,7.08,0,0,0-4.51.41c-3.16,1.26-5.79,3.64-8.24,6-.64.61-1.27,1.24-1.89,1.87,1.14-2.21,2.24-4.44,3.28-6.7a1,1,0,0,0-1.71-1,156.7,156.7,0,0,1-8,15.29,1,1,0,0,0,.35,1.36,1,1,0,0,0,1.35-.36,68.85,68.85,0,0,1,6.72-7.76,35.89,35.89,0,0,1,7.3-6,8.17,8.17,0,0,1,3.75-1.26,3.71,3.71,0,0,1,1.64.33l.42.25.1.06a.68.68,0,0,0,.11.12s0,.08.07.13h0c0,.08,0,.16,0,.24a.11.11,0,0,1,0,.06c0,.1,0,.2,0,.3a2.46,2.46,0,0,1,0,.28s0,.1,0,.13c-.05.25-.11.5-.18.74A14.42,14.42,0,0,1,75.06,27c-1.32,2.41-2.93,4.65-4.47,6.92-.62.93.8,2,1.56,1.2a73.9,73.9,0,0,1,9.41-8.62,52.61,52.61,0,0,1,5.34-3.67,20.82,20.82,0,0,1,4.7-2.19c.34-.1.68-.18,1-.25l.17,0,.13,0c.18,0,.35,0,.53,0h.44l.09,0,.12,0c.13,0,.25.07.38.1l.09,0a.65.65,0,0,1,.23.13.85.85,0,0,1,.16.21c0,.05.11.38.11.4a3.68,3.68,0,0,1-.19,1.51A11.71,11.71,0,0,1,93.07,26c-.78,1.06-1.64,2.06-2.48,3.07a11.56,11.56,0,0,0-2.36,3.46,3.4,3.4,0,0,0,1.12,3.62,5.1,5.1,0,0,0,3.9,1.06,18.92,18.92,0,0,0,8-3,19.74,19.74,0,0,0,2.6-2,6,6,0,0,0,.29,2.19,5.41,5.41,0,0,0,5.3,3.51,12.28,12.28,0,0,0,6.75-2.2,30.93,30.93,0,0,0,5.86-5.1c-.35.77-.71,1.55-1.07,2.32-.57,1.21-1.14,2.42-1.72,3.63a1,1,0,0,0,1.7,1,58.39,58.39,0,0,1,8.29-10.06,56.64,56.64,0,0,1,4.91-4.25,16.74,16.74,0,0,1,2.78-1.84,3.12,3.12,0,0,1,2.49-.28c1.38.6,1.53,2.54,1.19,3.83-.56,2.12-2,3.86-2.62,6-.53,1.92-.41,4.25,1.17,5.66a5.62,5.62,0,0,0,6,.6,14.15,14.15,0,0,0,3.17-2.06A27.32,27.32,0,0,0,151,32.64l.32-.34a8.36,8.36,0,0,0-.13,2.59,3.9,3.9,0,0,0,.66,1.86A4.51,4.51,0,0,0,154,38.22a7.84,7.84,0,0,0,5.5-.21,13,13,0,0,0,5.1-3.46c.29-.32.57-.67.83-1a5,5,0,0,0,3.39,4,9.06,9.06,0,0,0,6.31-.52A20.8,20.8,0,0,0,181,33.13C181.9,32.28,180.5,30.89,179.56,31.74ZM76.28,22Zm.3.54c0-.08,0-.06,0,0Zm34,.43a12,12,0,0,1,2.34-2.11,3,3,0,0,1,2.42-.53,1.75,1.75,0,0,1,1.22,1.77,5.2,5.2,0,0,1-3,4.44,10.51,10.51,0,0,1-6,.79,22.35,22.35,0,0,1,1.19-1.94A19.51,19.51,0,0,1,110.55,23Zm62.77-1.3c1-.88,2.47-1.91,3.81-1.21s.94,2.54.41,3.56c-1.65,3.17-5.42,3.64-8.66,3.3A21,21,0,0,1,173.32,21.69Z"/><path class="cls-1" d="M217.54,12.16a1.05,1.05,0,0,0-1.4.46c-.93,1.4-4.79,6.86-8.65,12.65L205.63,28c-1.47.07-3.2.07-4.73.07a23.09,23.09,0,0,1-4.66-.33l-.47-.14.33-.2C200.43,23.88,207,18,210.82,14.22a1.14,1.14,0,0,0,.2-1.46,1.11,1.11,0,0,0-1.47.13c-4.46,4.26-12.18,11.32-16,14.38-.6.47-.73,1.27-.14,1.6,1.34,1,4.4,1.2,7.2,1.2,1.26,0,2.53,0,3.72-.07l-3.13,4.66c-1.46,2.4-2.73,4.46-3.19,5.53a.81.81,0,0,0,.53,1.2,1.25,1.25,0,0,0,1.33-.74c.4-.86,1.47-2.66,3.07-5.19l3.66-5.53c.73-.06,1.4-.06,2-.06a1.51,1.51,0,0,0,1.27-1,.88.88,0,0,0-.87-1h-1l1.13-1.66c3.86-5.73,7.79-11.39,8.72-12.72A.89.89,0,0,0,217.54,12.16Z"/><ellipse class="cls-1" cx="216.15" cy="37.62" rx="1.52" ry="1.54"/><path class="cls-1" d="M246.28,15a4.45,4.45,0,0,0-5.39-3.06,10.67,10.67,0,0,0-5.66,3.73A.93.93,0,0,0,235.3,17a.86.86,0,0,0,.4.13H236l-.47.2c-5.66,3-11.45,10.86-11.91,16.32-.27,2.33.46,5.39,2.73,6.59a4.56,4.56,0,0,0,2.13.46c2.33,0,5.19-1.46,8.65-4.86s9.66-11.91,9.66-18.11A7.3,7.3,0,0,0,246.28,15ZM235.9,34.53c-4.4,4.33-7.33,4.59-8.66,3.86-1.53-.73-1.93-2.33-1.66-4.93.6-6,8.45-15,13.58-15.31a1.33,1.33,0,0,0,1.13-1.07.84.84,0,0,0-.93-.93,9,9,0,0,0-2.46.6l-.4.13.26-.19a8.27,8.27,0,0,1,4.2-2.87c1.33-.26,2.59.14,3.46,2.13a5.3,5.3,0,0,1,.33,2.07C244.75,23.21,239.36,31.07,235.9,34.53Z"/></g></g></svg>